<svg width="34" height="34" viewBox="0 0 34 34" fill="none" xmlns="http://www.w3.org/2000/svg">
<path d="M17 0.333344C7.80001 0.333344 0.333344 7.80001 0.333344 17C0.333344 26.2 7.80001 33.6667 17 33.6667C26.2 33.6667 33.6667 26.2 33.6667 17C33.6667 7.80001 26.2 0.333344 17 0.333344ZM22.8833 17.05C22.6333 17.3 22.3167 17.4167 22 17.4167C21.6833 17.4167 21.3667 17.3 21.1167 17.05L18.25 14.1833V22.8333C18.25 23.5167 17.6833 24.0833 17 24.0833C16.3167 24.0833 15.75 23.5167 15.75 22.8333V14.1833L12.8833 17.05C12.4 17.5333 11.6 17.5333 11.1167 17.05C10.6333 16.5667 10.6333 15.7667 11.1167 15.2833L16.1167 10.2833C16.6 9.80001 17.4 9.80001 17.8833 10.2833L22.8833 15.2833C23.3667 15.7667 23.3667 16.5667 22.8833 17.05Z" fill="white"/>
</svg>
