<svg width="505" height="372" viewBox="0 0 505 372" fill="none" xmlns="http://www.w3.org/2000/svg">
<path d="M55.6426 96.7261H447.826" stroke="#DED8D5" stroke-width="1.26001" stroke-miterlimit="10"/>
<path d="M442.706 71.0648H60.7631C57.9351 71.0648 55.6426 73.3534 55.6426 76.1767V308.188C55.6426 311.011 57.9351 313.3 60.7631 313.3H442.706C445.534 313.3 447.826 311.011 447.826 308.188V76.1767C447.826 73.3534 445.534 71.0648 442.706 71.0648Z" stroke="#DED8D5" stroke-width="1.26001" stroke-miterlimit="10"/>
<path d="M81.4887 84.1581C81.4887 86.1339 79.8787 87.7411 77.8996 87.7411C75.9205 87.7411 74.3105 86.1339 74.3105 84.1581C74.3105 82.1823 75.9127 80.5751 77.8996 80.5751C79.8866 80.5751 81.4887 82.1823 81.4887 84.1581Z" fill="#FFB1A5"/>
<path d="M95.4288 84.1582C95.4288 86.1339 93.8188 87.7412 91.8398 87.7412C89.8607 87.7412 88.2507 86.1339 88.2507 84.1582C88.2507 82.1824 89.8607 80.5751 91.8398 80.5751C93.8188 80.5751 95.4288 82.1824 95.4288 84.1582Z" fill="#EAD254"/>
<path d="M109.377 84.1582C109.377 86.1339 107.767 87.7412 105.788 87.7412C103.809 87.7412 102.199 86.1339 102.199 84.1582C102.199 82.1824 103.801 80.5751 105.788 80.5751C107.775 80.5751 109.377 82.1824 109.377 84.1582Z" fill="#00857B"/>
<path d="M498.772 88.6819H406.603C404.005 88.6819 401.898 90.7846 401.898 93.3783V178.477C401.898 181.071 404.005 183.174 406.603 183.174H498.772C501.37 183.174 503.476 181.071 503.476 178.477V93.3783C503.476 90.7846 501.37 88.6819 498.772 88.6819Z" fill="#EDEDED"/>
<path d="M498.772 88.6819H406.603C404.005 88.6819 401.898 90.7846 401.898 93.3783V178.477C401.898 181.071 404.005 183.174 406.603 183.174H498.772C501.37 183.174 503.476 181.071 503.476 178.477V93.3783C503.476 90.7846 501.37 88.6819 498.772 88.6819Z" stroke="#DED8D5" stroke-width="1.26001" stroke-miterlimit="10"/>
<path d="M428.891 158.594H476.798C479.409 158.594 481.526 156.481 481.526 153.874V114.681C481.526 112.074 479.409 109.961 476.798 109.961H428.891C426.28 109.961 424.163 112.074 424.163 114.681V153.874C424.163 156.481 426.28 158.594 428.891 158.594Z" fill="#C98BD2"/>
<path d="M465.921 142.365H443.499H439.454V124.638H465.921V129.068V142.365Z" stroke="white" stroke-width="1.05534" stroke-linecap="round" stroke-linejoin="round"/>
<path d="M439.454 124.638L452.688 135.05L465.921 124.638" stroke="white" stroke-width="1.05534" stroke-linecap="round" stroke-linejoin="round"/>
<path d="M93.1591 168.967H5.2541C2.77744 168.967 0.769714 170.971 0.769714 173.444V249.957C0.769714 252.43 2.77744 254.434 5.2541 254.434H93.1591C95.6357 254.434 97.6434 252.43 97.6434 249.957V173.444C97.6434 170.971 95.6357 168.967 93.1591 168.967Z" fill="#EDEDED"/>
<path d="M93.1591 168.967H5.2541C2.77744 168.967 0.769714 170.971 0.769714 173.444V249.957C0.769714 252.43 2.77744 254.434 5.2541 254.434H93.1591C95.6357 254.434 97.6434 252.43 97.6434 249.957V173.444C97.6434 170.971 95.6357 168.967 93.1591 168.967Z" stroke="#DED8D5" stroke-width="1.26001" stroke-miterlimit="10"/>
<path d="M71.7817 183.605H26.1918C23.3117 183.605 20.977 185.936 20.977 188.811V232.764C20.977 235.639 23.3117 237.97 26.1918 237.97H71.7817C74.6617 237.97 76.9965 235.639 76.9965 232.764V188.811C76.9965 185.936 74.6617 183.605 71.7817 183.605Z" fill="#FFB1A5"/>
<path d="M38.1292 200.117C31.9798 206.256 31.9798 216.338 38.1292 222.477C44.2785 228.616 54.3782 228.616 60.5275 222.477C66.6769 216.338 66.6769 206.256 60.5275 200.117C54.3782 193.978 44.2785 193.978 38.1292 200.117ZM60.4883 202.39H55.4384C54.9358 200.807 54.2839 199.223 53.475 197.639C56.2709 198.486 58.7055 200.164 60.4883 202.39ZM43.5089 210.372C43.5089 208.326 43.7523 206.287 44.2628 204.241H54.3939C54.8965 206.287 55.14 208.326 55.1478 210.372H43.5167H43.5089ZM55.0772 212.222C54.9358 214.268 54.5667 216.307 53.9855 218.353H44.6555C44.0743 216.307 43.7052 214.268 43.5638 212.222H55.0693H55.0772ZM49.3205 197.035C50.0823 197.035 50.8284 197.098 51.5588 197.208C52.5326 198.941 53.2865 200.665 53.852 202.398H44.7811C45.3466 200.665 46.1084 198.941 47.0744 197.208C47.8047 197.09 48.5508 197.035 49.3126 197.035H49.3205ZM45.166 197.647C44.3649 199.231 43.713 200.814 43.2026 202.398H38.1527C39.9355 200.172 42.3701 198.494 45.166 197.647ZM36.8961 204.241H42.6764C42.1659 206.287 41.9067 208.326 41.8675 210.372H35.0584C35.1998 208.153 35.8516 206.067 36.8961 204.241ZM36.8961 218.353C35.8516 216.526 35.1998 214.441 35.0584 212.222H41.891C41.9931 214.268 42.3151 216.307 42.857 218.353H36.8961ZM38.1527 220.204H43.4068C43.9329 221.803 44.5848 223.41 45.3623 225.01C42.4879 224.186 39.9826 222.477 38.1606 220.204H38.1527ZM49.3126 225.566C48.6765 225.566 48.0561 225.527 47.4435 225.441C46.5717 223.693 45.8257 221.952 45.2288 220.204H53.4043C52.8075 221.952 52.0614 223.7 51.1896 225.441C50.5771 225.519 49.9488 225.566 49.3205 225.566H49.3126ZM53.2708 225.01C54.0483 223.41 54.7002 221.803 55.2264 220.204H60.4804C58.6584 222.477 56.1531 224.186 53.2787 225.01H53.2708ZM61.737 218.353H55.7761C56.318 216.307 56.64 214.268 56.7421 212.222H63.5747C63.4333 214.441 62.7815 216.526 61.737 218.353ZM63.5747 210.372H56.7657C56.7264 208.326 56.4594 206.287 55.9568 204.241H61.737C62.7815 206.067 63.4333 208.153 63.5747 210.372Z" fill="white"/>
<path d="M87.9207 48.712H8.28558C6.64419 48.712 5.30908 47.3792 5.30908 45.7405C5.30908 44.1019 6.64419 42.769 8.28558 42.769H87.9207C89.5621 42.769 90.8972 44.1019 90.8972 45.7405C90.8972 47.3792 89.5621 48.712 87.9207 48.712Z" fill="#C98BD2"/>
<path d="M502.016 242.901H463.36C461.719 242.901 460.384 241.568 460.384 239.93C460.384 238.291 461.719 236.958 463.36 236.958H502.016C503.657 236.958 504.992 238.291 504.992 239.93C504.992 241.568 503.657 242.901 502.016 242.901Z" fill="#56DFED"/>
<path d="M474.952 268.39H470.224C468.984 268.39 467.978 269.394 467.978 270.632V275.062C467.978 276.301 468.984 277.305 470.224 277.305H474.952C476.193 277.305 477.198 276.301 477.198 275.062V270.632C477.198 269.394 476.193 268.39 474.952 268.39Z" fill="#C98BD2"/>
<path d="M27.2597 288.994H22.5319C21.2914 288.994 20.2858 289.998 20.2858 291.237V295.666C20.2858 296.905 21.2914 297.909 22.5319 297.909H27.2597C28.5002 297.909 29.5059 296.905 29.5059 295.666V291.237C29.5059 289.998 28.5002 288.994 27.2597 288.994Z" fill="#FFB1A5"/>
<path d="M388.744 21.7569H310.137C308.832 21.7569 307.773 22.8135 307.773 24.1168V43.2786C307.773 44.582 308.832 45.6385 310.137 45.6385H388.744C390.049 45.6385 391.108 44.582 391.108 43.2786V24.1168C391.108 22.8135 390.049 21.7569 388.744 21.7569Z" fill="#FFB1A5"/>
<path d="M319.122 30.2637H375.024" stroke="white" stroke-width="0.754725" stroke-miterlimit="10"/>
<path d="M319.122 35.9951H341.889" stroke="white" stroke-width="0.754725" stroke-miterlimit="10"/>
<path d="M316.844 42.9337V52.2402L328.57 42.9337H316.844Z" fill="#FFB1A5"/>
<path d="M155.956 0H195.625C198.428 0 200.698 2.26585 200.698 5.06485V41.9928C200.698 44.7918 198.428 47.0576 195.625 47.0576H157.574C153.883 47.0576 150.883 44.0626 150.883 40.3777V5.06485C150.883 2.26585 153.152 0 155.956 0Z" fill="#56DFED"/>
<path d="M187.418 27.0099L184.582 24.1796C184.08 23.6229 183.42 23.3171 182.76 23.3171C182.101 23.3171 181.441 23.6229 180.938 24.1247L179.321 25.7398C179.218 25.6928 179.116 25.6379 179.014 25.5908C178.81 25.4889 178.661 25.4419 178.512 25.3399C176.996 24.3756 175.622 23.1133 174.31 21.4982C173.705 20.7377 173.25 20.032 172.991 19.4283C173.399 19.0755 173.752 18.6678 174.106 18.315C174.255 18.166 174.412 18.0092 174.561 17.8603C175.119 17.3036 175.425 16.645 175.425 15.9864C175.425 15.3278 175.119 14.6693 174.561 14.1126L173.14 12.6935C172.991 12.5445 172.834 12.3877 172.684 12.1917L171.718 11.2274C171.216 10.7256 170.556 10.4198 169.896 10.4198C169.237 10.4198 168.632 10.6707 168.074 11.2274L166.299 12.9993C165.64 13.6579 165.239 14.5125 165.137 15.4768C165.035 16.99 165.443 18.4091 165.797 19.3186C166.606 21.6471 167.87 23.717 169.747 25.9436C172.025 28.625 174.711 30.7498 177.852 32.263C179.014 32.8196 180.64 33.4782 182.407 33.6272H182.76C183.978 33.6272 184.991 33.1724 185.8 32.31L185.847 32.263C186.098 31.9572 186.404 31.6592 186.758 31.3535L187.418 30.6949C188.478 29.5816 188.478 28.0684 187.418 27.0021V27.0099ZM186.255 29.6364C186.051 29.8403 185.847 30.0441 185.651 30.2401C185.297 30.5459 184.991 30.8987 184.637 31.2515C184.135 31.7612 183.577 32.0121 182.815 32.0121H182.564C181.048 31.9101 179.627 31.3064 178.614 30.7968C175.724 29.3777 173.195 27.4098 171.066 24.8774C169.347 22.8075 168.176 20.8318 167.367 18.7619C166.865 17.5467 166.661 16.5901 166.763 15.6258C166.81 15.0691 167.014 14.5673 167.47 14.1596L169.189 12.4426C169.339 12.2936 169.598 12.0898 169.896 12.0898C170.195 12.0898 170.399 12.2388 170.603 12.4426C170.909 12.7484 171.208 13.0463 171.514 13.3521C171.663 13.501 171.82 13.7049 172.017 13.8539L173.438 15.273C173.587 15.4219 173.792 15.7277 173.792 15.9786C173.792 16.2844 173.587 16.5353 173.438 16.6842L172.983 17.139L171.718 18.4013L171.671 18.4483C171.169 18.9501 171.263 19.4127 171.365 19.7106V19.7576C171.718 20.6671 172.276 21.4747 173.038 22.4861C174.459 24.258 175.975 25.6222 177.648 26.6806C177.852 26.8296 178.103 26.9315 178.307 27.0335C178.512 27.1354 178.661 27.1824 178.81 27.2843L178.857 27.3314C179.36 27.5823 179.87 27.4804 180.279 27.0805L182.054 25.3086C182.203 25.1596 182.462 24.9558 182.76 24.9558C183.012 24.9558 183.263 25.1596 183.42 25.3086L186.255 28.1389C186.711 28.5937 186.711 29.1033 186.255 29.6051V29.6364Z" fill="white"/>
<path d="M361.138 225.237L332.473 221.426L332.701 224.265L308.19 227.526C308.19 227.526 292.388 267.096 306.313 354.116H326.253L333.431 265.873H335.976L342.926 354.116H362.866C376.791 267.088 361.146 225.229 361.146 225.229L361.138 225.237Z" fill="#8E716C"/>
<path d="M324.305 265.873H345.109" stroke="#282828" stroke-width="0.786705" stroke-linecap="round" stroke-linejoin="round"/>
<path d="M377.874 183.495C375.424 179.59 361.649 179.724 360.918 179.638C357.196 179.198 363.306 208.788 371.057 234.653C372.542 239.608 378.008 242.195 382.783 240.173L382.94 240.11C386.717 238.511 388.861 234.512 388.107 230.49C384.424 210.975 380.725 188.019 377.882 183.495H377.874Z" fill="#FFB1A5"/>
<path d="M381.157 194.189L363.573 201.002L361.924 192.676L380.136 188.136L381.157 194.189Z" fill="#F3978E"/>
<path d="M384.479 210.858C384.479 210.858 376.147 222.03 376.547 221.513C376.948 220.995 383.081 203.457 383.081 203.457L384.479 210.85V210.858Z" fill="#F3978E"/>
<path d="M396.393 195.844L372.51 226.734C369.377 230.788 370.374 236.652 374.678 239.444C378.974 242.227 384.738 240.761 387.181 236.268L407.058 199.654L396.385 195.844H396.393Z" fill="#FFB1A5"/>
<path d="M402.582 203.778C397.406 202.108 394.563 196.565 396.236 191.398C397.909 186.231 403.461 183.393 408.637 185.063C413.812 186.733 416.655 192.276 414.982 197.443C413.31 202.61 407.757 205.448 402.582 203.778Z" fill="#FFB1A5"/>
<path d="M412.791 188.505C412.791 188.505 415.485 185.714 410.702 183.754C405.919 181.794 400.006 182.241 396.228 191.398L412.783 188.513L412.791 188.505Z" fill="#FFB1A5"/>
<path d="M417.747 168.983L427.744 173.311C428.302 173.554 428.506 174.212 428.2 174.785L415.045 199.317C414.739 199.889 414.04 200.156 413.482 199.913L403.485 195.585C402.927 195.342 402.723 194.683 403.029 194.111L416.184 169.579C416.49 169.006 417.189 168.74 417.747 168.983Z" fill="#372F5F"/>
<path d="M416.789 168.544L426.786 172.871C427.344 173.114 427.548 173.773 427.242 174.345L414.087 198.878C413.781 199.45 413.082 199.717 412.524 199.474L402.527 195.146C401.969 194.903 401.765 194.244 402.071 193.672L415.226 169.139C415.532 168.567 416.231 168.3 416.789 168.544Z" fill="#261B43"/>
<path d="M415.666 171.045L424.446 174.847L413.726 194.84L404.938 191.038L415.666 171.045Z" fill="#E6E6E6"/>
<path d="M424.446 174.847L404.938 191.038L415.666 171.045L424.446 174.847Z" fill="white"/>
<path d="M407.836 182.938C407.836 182.938 410.066 183.37 412.069 184.506C412.956 185.008 413.404 186.028 413.16 187.015C412.94 187.917 412.179 188.583 411.26 188.701L406.061 189.352C406.061 189.352 403.351 194.017 399.801 194.542L403.053 186.349L407.828 182.938H407.836Z" fill="#FFB1A5"/>
<path d="M341.434 144.591C340.86 144.591 378.306 149.766 384.479 192.378L365.049 195.349L361.13 227.526H306.925L296.166 168.081C296.166 168.081 308.174 150.903 330.47 144.591H341.426H341.434Z" fill="#56DFED"/>
<path d="M365.049 195.349L366.738 176.744" stroke="#282828" stroke-width="0.786705" stroke-linecap="round" stroke-linejoin="round"/>
<path d="M344.991 145.195V130.392H327.611V145.367C326.724 145.634 325.24 146.167 322.946 147.257L336.502 155.317L350.355 147.257C350.355 147.257 348.156 145.979 344.991 145.195Z" fill="#FFB1A5"/>
<path d="M327.454 132.204C327.454 132.204 330.572 140.475 338.905 139.762C346.562 139.103 345.345 127.64 345.345 127.64L327.454 132.204Z" fill="#282828"/>
<path d="M319.876 121.204C317.151 123.673 311.064 114.312 313.695 111.685C316.326 109.059 318.336 113.183 318.336 113.183L319.514 115.974L320.402 119.753L320.614 120.741L319.884 121.196L319.876 121.204Z" fill="#F3978E"/>
<path d="M314.967 115.002C314.967 115.002 317.033 114.077 318.863 117.056" stroke="#282828" stroke-width="0.633202" stroke-linecap="round" stroke-linejoin="round"/>
<path d="M352.083 120.921C354.588 123.61 361.452 114.798 359.049 111.96C356.646 109.122 354.298 113.057 354.298 113.057L352.892 115.739L351.69 119.432L351.4 120.404L352.091 120.921H352.083Z" fill="#F3978E"/>
<path d="M357.502 115.151C357.502 115.151 355.523 114.053 353.45 116.876" stroke="#282828" stroke-width="0.633202" stroke-linecap="round" stroke-linejoin="round"/>
<path d="M315.101 102.763C315.101 115.143 324.556 121.015 336.227 121.015C347.897 121.015 357.353 115.143 357.353 102.763C357.353 90.3833 347.897 81.9549 336.227 81.9549C324.556 81.9549 315.101 90.3754 315.101 102.763Z" fill="#282828"/>
<path d="M317.967 103.626C317.967 111.231 319.043 117.785 320.119 122.442C321.172 126.998 324.132 130.189 328.31 132.752L329.072 133.223C333.494 135.935 339.211 135.998 343.703 133.387C348.235 130.753 351.408 127.272 352.382 122.38C354.157 113.481 354.353 103.633 354.353 103.633C354.353 103.633 356.041 84.4402 336.423 84.8166C316.805 85.1929 317.975 103.633 317.975 103.633L317.967 103.626Z" fill="#FFB1A5"/>
<path d="M334.97 114.578V117.236C334.97 117.393 335.002 117.542 335.057 117.683C335.277 118.224 335.905 118.483 336.47 118.334L337.688 118.013" stroke="#282828" stroke-width="0.786705" stroke-linecap="round" stroke-linejoin="round"/>
<path d="M331.852 104.276L322.098 106.558C322.098 106.558 322.538 104.08 326.528 103.179C330.517 102.277 331.845 104.276 331.845 104.276H331.852Z" fill="#282828"/>
<path d="M340.507 104.276L349.923 106.558C349.923 106.558 349.499 104.08 345.643 103.179C341.795 102.277 340.507 104.276 340.507 104.276Z" fill="#282828"/>
<path d="M328.146 113.065C329.052 113.065 329.787 112.332 329.787 111.427C329.787 110.522 329.052 109.788 328.146 109.788C327.239 109.788 326.504 110.522 326.504 111.427C326.504 112.332 327.239 113.065 328.146 113.065Z" fill="#282828"/>
<path d="M345.384 111.427C345.384 112.328 344.646 113.065 343.743 113.065C342.84 113.065 342.101 112.336 342.101 111.427C342.101 110.517 342.84 109.788 343.743 109.788C344.646 109.788 345.384 110.517 345.384 111.427Z" fill="#282828"/>
<path d="M329.795 121.423H342.478C342.478 121.423 336.855 128.252 329.795 121.423Z" fill="white"/>
<path d="M332.398 117C335.128 114.275 335.128 109.857 332.398 107.132C329.669 104.407 325.243 104.407 322.514 107.132C319.784 109.857 319.784 114.275 322.514 117C325.243 119.725 329.669 119.725 332.398 117Z" stroke="#C98BD2" stroke-width="0.857061" stroke-miterlimit="10"/>
<path d="M349.583 116.999C352.313 114.274 352.313 109.856 349.583 107.131C346.854 104.406 342.428 104.406 339.698 107.131C336.969 109.856 336.969 114.274 339.698 116.999C342.428 119.724 346.854 119.724 349.583 116.999Z" stroke="#C98BD2" stroke-width="0.857061" stroke-miterlimit="10"/>
<path d="M334.452 112.07C334.452 112.07 336.109 110.525 337.648 112.07" stroke="#C98BD2" stroke-width="0.857061" stroke-miterlimit="10"/>
<path d="M320.465 112.07L318.258 112.007" stroke="#C98BD2" stroke-width="0.857061" stroke-miterlimit="10"/>
<path d="M351.628 112.07L353.842 112.007" stroke="#C98BD2" stroke-width="0.857061" stroke-miterlimit="10"/>
<path d="M354.102 109.984C354.102 109.984 346.256 99.3996 348.062 88.6662C348.062 88.6662 353.882 91.5906 355.405 99.1409C356.921 106.691 354.102 109.976 354.102 109.976V109.984Z" fill="#282828"/>
<path d="M317.959 110.705C317.959 110.705 327.07 98.6783 325.263 87.9527C325.263 87.9527 318.941 91.5984 317.425 99.1487C315.91 106.699 317.959 110.705 317.959 110.705Z" fill="#282828"/>
<path d="M353.442 92.9C353.442 92.9 343.366 103.908 315.808 102.026C315.808 102.026 320.025 85.8672 333.384 84.1502C333.384 84.1502 348.808 82.3156 353.442 92.9Z" fill="#282828"/>
<path d="M365.731 82.1252C366.89 74.9608 362.011 68.2152 354.835 67.0587C347.658 65.9022 340.901 70.7725 339.743 77.937C338.584 85.1015 343.463 91.847 350.639 93.0036C357.816 94.1601 364.573 89.2897 365.731 82.1252Z" fill="#282828"/>
<path d="M192.098 225.206L167.587 221.944L167.807 219.106L139.142 222.916C139.142 222.916 123.497 264.776 137.422 351.795H157.362L164.312 263.553H166.857L174.035 351.795H193.975C207.9 264.768 192.098 225.206 192.098 225.206Z" fill="#282828"/>
<path d="M190.143 106.158C186.828 102.261 184.166 97.714 181.912 91.3398C179.485 84.4952 171.553 87.2786 171.553 87.2786C171.553 87.2786 164.941 78.7875 154.99 81.7433C145.04 84.6991 141.584 91.7711 141.38 100.176C141.176 108.581 134.555 109.89 129.458 119.612C120.458 136.775 135.608 151.232 163.197 147.218L163.236 146.951C165.954 147.775 169.284 148.135 173.344 147.892C206.486 145.924 203.282 121.596 190.143 106.158Z" fill="#282828"/>
<path d="M179.289 118.883C182.014 121.353 188.101 111.991 185.47 109.365C182.839 106.738 180.828 110.862 180.828 110.862L179.65 113.653L178.763 117.432L178.551 118.42L179.281 118.875L179.289 118.883Z" fill="#F3978E"/>
<path d="M184.205 112.681C184.205 112.681 182.14 111.756 180.31 114.735" stroke="#282828" stroke-width="0.633202" stroke-linecap="round" stroke-linejoin="round"/>
<path d="M147.082 118.601C144.576 121.29 137.712 112.477 140.115 109.639C142.519 106.801 144.867 110.737 144.867 110.737L146.273 113.418L147.474 117.111L147.765 118.083L147.074 118.601H147.082Z" fill="#F3978E"/>
<path d="M141.663 112.83C141.663 112.83 143.642 111.732 145.715 114.555" stroke="#282828" stroke-width="0.633202" stroke-linecap="round" stroke-linejoin="round"/>
<path d="M184.072 100.442C184.072 112.822 174.616 118.695 162.946 118.695C151.275 118.695 141.82 112.822 141.82 100.442C141.82 88.0626 151.275 79.6342 162.946 79.6342C174.616 79.6342 184.072 88.0547 184.072 100.442Z" fill="#282828"/>
<path d="M171.553 128.072H154.173V150.534H171.553V128.072Z" fill="#FFB1A5"/>
<path d="M151.644 126.676C151.644 126.676 156.482 136.312 162.435 137.817C164.022 138.217 165.726 138.084 167.257 137.543C169.496 136.751 172.339 133.419 172.818 129.726L173.045 127.617C173.045 127.617 162.459 133.372 151.652 126.676H151.644Z" fill="#282828"/>
<path d="M181.197 101.305C181.197 108.91 180.121 115.465 179.046 120.122C177.993 124.677 175.032 127.868 170.854 130.432L170.092 130.902C165.671 133.615 159.954 133.678 155.461 131.067C150.93 128.432 147.757 124.951 146.783 120.059C145.008 111.16 144.812 101.313 144.812 101.313C144.812 101.313 143.123 82.1196 162.742 82.4959C182.36 82.8723 181.19 101.313 181.19 101.313L181.197 101.305Z" fill="#FFB1A5"/>
<path d="M161.634 113.293V114.869C161.634 115.025 161.666 115.174 161.721 115.315C161.941 115.856 162.569 116.115 163.134 115.966L164.352 115.645" stroke="#282828" stroke-width="0.786705" stroke-linecap="round" stroke-linejoin="round"/>
<path d="M165.726 102.896L176.163 105.366C176.163 105.366 175.692 102.685 171.42 101.713C167.147 100.74 165.726 102.896 165.726 102.896Z" fill="#282828"/>
<path d="M160.244 102.896L149.673 105.366C149.673 105.366 150.152 102.685 154.48 101.713C158.807 100.74 160.244 102.896 160.244 102.896Z" fill="#282828"/>
<path d="M156.459 109.365C156.459 110.266 155.721 110.995 154.817 110.995C153.914 110.995 153.176 110.266 153.176 109.365C153.176 108.463 153.914 107.734 154.817 107.734C155.721 107.734 156.459 108.463 156.459 109.365Z" fill="#282828"/>
<path d="M172.048 109.365C172.048 110.266 171.31 110.995 170.407 110.995C169.504 110.995 168.765 110.266 168.765 109.365C168.765 108.463 169.504 107.734 170.407 107.734C171.31 107.734 172.048 108.463 172.048 109.365Z" fill="#282828"/>
<path d="M155.367 118.695H169.802C169.802 118.695 168.781 122.654 162.239 122.654C157.252 122.654 155.367 118.695 155.367 118.695Z" fill="white"/>
<path d="M145.063 107.663C145.063 107.663 152.909 97.0789 151.103 86.3455C151.103 86.3455 145.283 89.27 143.759 96.8202C142.244 104.37 145.063 107.656 145.063 107.656V107.663Z" fill="#282828"/>
<path d="M181.213 107.318C181.213 107.318 172.103 96.3655 173.909 85.64C173.909 85.64 180.231 89.2857 181.747 96.8359C183.263 104.386 181.213 107.318 181.213 107.318Z" fill="#282828"/>
<path d="M145.723 90.5793C145.723 90.5793 154.723 102.661 182.289 100.772C182.289 100.772 179.14 83.5465 165.781 81.8295C165.781 81.8295 150.356 79.9948 145.723 90.5793Z" fill="#282828"/>
<path d="M120.599 278.339C120.199 278.967 143.54 176.956 136.613 178.501C135.977 178.642 123.843 179.763 122.044 183.424C116.814 194.04 113.068 277.563 113.068 277.563L120.607 278.339H120.599Z" fill="#FFB1A5"/>
<path d="M113.06 277.563C113.06 277.563 109.298 294.984 123.521 296.89C124.455 297.015 125.366 296.466 125.673 295.572L125.712 295.455C126.05 294.467 125.555 293.416 124.605 292.993C122.288 291.958 118.691 289.339 120.474 283.404C120.474 283.404 122.531 283.153 123.662 286.979C123.953 287.967 125.06 288.461 125.979 287.999C126.607 287.685 126.961 287.011 126.874 286.313C126.536 283.632 125.186 277.179 120.002 275.446L113.068 277.563H113.06Z" fill="#FFB1A5"/>
<path d="M117.843 207.941C117.843 207.941 131.288 226.844 131.359 226.484C131.429 226.115 136.063 199.936 136.063 199.936L119.743 192.88L117.843 207.941Z" fill="#F3978E"/>
<path d="M155.21 146.841C155.783 146.841 121.974 147.445 115.793 190.057L135.223 193.029L139.141 225.205H193.347L204.106 165.76C204.106 165.76 196.457 152.878 174.161 146.575L155.21 146.841Z" fill="#00857B"/>
<path d="M138.686 151.992C138.686 151.992 143.461 158.327 163.04 158.327C182.619 158.327 187.394 151.663 187.394 151.663C187.394 151.663 175.959 145.289 162.694 143.219C162.694 143.219 150.851 145.328 138.686 151.992Z" fill="#FFB1A5"/>
<path d="M205.206 287.003L205.253 372H247.372L250.607 287.003H205.206Z" fill="#005683"/>
<path d="M296.653 287.003L296.606 372H254.487L251.251 287.003H296.653Z" fill="#005683"/>
<path d="M273.65 287.003H230.102V316.53H273.65V287.003Z" fill="#005683"/>
<path d="M236.188 316.53H266.22" stroke="#282828" stroke-width="0.895437" stroke-linecap="round" stroke-linejoin="round"/>
<path d="M323.261 212.833C325.876 241.631 323.119 262.619 323.881 315.612L298.742 316.663L294.996 217.467L323.261 212.833Z" fill="#FFB1A5"/>
<path d="M298.098 235.304C298.098 235.304 313.664 233.885 324.305 226.875L324.022 220.705L298.082 224.233V235.304H298.098Z" fill="#F3978E"/>
<path d="M273.124 146.52C273.124 146.52 322.57 158.931 331.531 221.591C331.531 221.591 307.334 232.066 283.082 227.557L288.54 206.6L273.131 146.52H273.124Z" fill="#C98BD2"/>
<path d="M125.429 172.573L162.247 215.977L150.985 247.652C150.985 247.652 123.003 208.811 110.429 178.791L125.437 172.573H125.429Z" fill="#FFB1A5"/>
<path d="M126.639 174.141C126.639 174.141 113.712 181.433 110.421 178.798C104.672 174.188 99.9288 157.316 99.9288 157.316C99.9288 157.316 124.102 148.221 123.874 148.574C123.647 148.927 126.639 174.141 126.639 174.141Z" fill="#FFB1A5"/>
<path d="M126.639 174.141C126.411 172.84 131.43 158.829 133.157 153.568C133.574 152.298 132.694 150.91 131.32 150.644C130.424 150.471 129.003 150.581 128.327 151.867L122.264 162.216L126.639 174.141Z" fill="#FFB1A5"/>
<path d="M126.191 158.986L122.029 138.311C121.785 136.939 120.395 135.99 119.013 136.249C117.819 136.476 117.026 137.535 117.167 138.734L118.982 154.133L126.183 158.994L126.191 158.986Z" fill="#FFB1A5"/>
<path d="M117.913 151.365L112.259 136.602C111.788 135.308 110.335 134.595 109.047 135.026C107.932 135.402 107.303 136.523 107.57 137.676L111.764 154.737L117.913 151.373V151.365Z" fill="#FFB1A5"/>
<path d="M111.843 155.716L104.688 141.212C104.028 139.863 102.395 139.244 101.06 139.824C99.8032 140.373 99.2456 141.792 99.7797 143.094L105.481 156.791L111.843 155.724V155.716Z" fill="#FFB1A5"/>
<path d="M99.9288 157.316L94.3135 148.425C93.8501 147.382 94.2742 146.206 95.2952 145.744C96.269 145.297 97.4706 145.65 98.0989 146.559L105.481 156.783L99.9288 157.316Z" fill="#FFB1A5"/>
<path d="M125.06 157.434C125.06 157.434 116.633 156.548 115.762 167.767" stroke="#282828" stroke-width="0.978585" stroke-linecap="round" stroke-linejoin="round"/>
<path d="M143.508 232.842C143.508 232.842 150.435 256.763 164.234 253.587C178.033 250.404 199.536 220.987 199.536 220.987L194.721 170.754L155.995 218.337L143.508 232.85V232.842Z" fill="#FFB1A5"/>
<path d="M168.011 203.55C168.011 203.55 181.088 223.237 192.24 230.184L199.543 220.987L171.381 199.238L168.011 203.558V203.55Z" fill="#F3978E"/>
<path d="M225.217 145.438C225.217 145.438 186.829 154.078 166.37 198.619C166.37 198.619 178.732 217.208 198.546 225.472L211.811 209.25L225.217 145.438Z" fill="#C98BD2"/>
<path d="M225.217 145.297C210.224 152.972 200.792 163.157 200.792 163.157L203.753 293.354H298.255L297.949 163.831C297.949 163.831 286.035 152.196 273.124 146.52C262.16 141.698 235.874 139.84 225.217 145.297Z" fill="#C98BD2"/>
<path d="M256.788 182.499H283.074V195.624C283.074 202.868 277.184 208.749 269.927 208.749C262.671 208.749 256.78 202.868 256.78 195.624V182.499H256.788Z" stroke="#282828" stroke-width="0.895437" stroke-linecap="round" stroke-linejoin="round"/>
<path d="M298.098 228.044L299.323 185.455" stroke="#282828" stroke-width="0.895437" stroke-linecap="round" stroke-linejoin="round"/>
<path d="M202.245 220.948L200.203 184.028" stroke="#282828" stroke-width="0.895437" stroke-linecap="round" stroke-linejoin="round"/>
<path d="M226.324 97.7451L222.382 78.2933C222.162 76.7095 221.541 74.2634 222.295 71.9661C223.544 68.1636 228.13 60.8642 235.968 64.2042L237.665 71.9034C237.665 71.9034 229.528 73.542 226.261 84.1735L226.324 97.7451Z" fill="#282828"/>
<path d="M235.395 68.2186C235.254 70.7745 232.992 81.9627 225.044 86.0318C225.044 86.0318 218.086 71.1273 235.395 68.2186Z" fill="#282828"/>
<path d="M263.267 141.714V108.675H232.764V141.714L223.685 145.846C223.685 145.846 225.814 159.535 248.338 159.841C270.862 160.146 273.123 146.52 273.123 146.52L263.267 141.714Z" fill="#FFB1A5"/>
<path d="M235.968 64.2043C235.968 64.2043 241.568 49.4566 258.83 57.297C269.283 62.0404 272.205 68.3989 273.453 72.9071C273.87 74.4046 274.034 76.7645 273.917 78.1679L269.739 97.7452L253.435 70.6569L237.657 71.9035L235.96 64.2043H235.968Z" fill="#282828"/>
<path d="M269.746 97.7452C269.746 97.7452 271.804 94.4758 276.045 96.0831C280.286 97.6903 278.37 107.977 272.008 109.286C272.008 109.286 269.731 109.78 267.94 108.22C267.94 108.22 269.503 100.623 269.754 97.7374L269.746 97.7452Z" fill="#F3978E"/>
<path d="M275.205 99.7131C275.205 99.7131 271.655 98.5292 269.126 103.751" stroke="#282828" stroke-width="0.895437" stroke-linecap="round" stroke-linejoin="round"/>
<path d="M226.324 97.7452C226.324 97.7452 224.266 94.4758 220.025 96.0831C215.785 97.6903 217.701 107.977 224.062 109.286C224.062 109.286 226.34 109.78 228.13 108.22C228.13 108.22 226.568 100.623 226.316 97.7374L226.324 97.7452Z" fill="#F3978E"/>
<path d="M220.866 99.7131C220.866 99.7131 224.416 98.5292 226.944 103.751" stroke="#282828" stroke-width="0.895437" stroke-linecap="round" stroke-linejoin="round"/>
<path d="M270.171 87.984C270.171 94.1857 269.566 107.154 265.741 114.853C262.16 122.082 256.23 125.97 248.455 126.206C240.68 126.441 234.892 123.446 230.251 114.061C225.609 104.676 225.829 88.0938 225.829 88.0938C225.829 88.0938 225.829 65.9449 247.756 65.9449C270.854 65.9449 270.163 87.9762 270.163 87.9762L270.171 87.984Z" fill="#FFB1A5"/>
<path d="M232.992 118.687C232.992 118.687 235.544 131.631 246.83 133.113C259.812 134.822 263.267 119.016 263.267 119.016C263.267 119.016 257.534 126.19 248.455 126.206C238.34 126.221 232.992 118.687 232.992 118.687Z" fill="#282828"/>
<path d="M246.437 97.1807V102.308C246.437 102.528 246.476 102.74 246.555 102.936C246.861 103.696 247.733 104.057 248.526 103.845L250.23 103.39" stroke="#282828" stroke-width="0.895437" stroke-linecap="round" stroke-linejoin="round"/>
<path d="M239.966 94.7346C239.966 95.8323 239.07 96.7261 237.971 96.7261C236.871 96.7261 235.976 95.8323 235.976 94.7346C235.976 93.637 236.871 92.7432 237.971 92.7432C239.07 92.7432 239.966 93.637 239.966 94.7346Z" fill="#282828"/>
<path d="M258.681 94.7346C258.681 95.8323 257.785 96.7261 256.686 96.7261C255.586 96.7261 254.691 95.8323 254.691 94.7346C254.691 93.637 255.586 92.7432 256.686 92.7432C257.785 92.7432 258.681 93.637 258.681 94.7346Z" fill="#282828"/>
<path d="M251.573 84.8166L264.995 88.2742C264.995 88.2742 264.382 84.5186 258.893 83.1466C253.403 81.7824 251.573 84.8087 251.573 84.8087V84.8166Z" fill="#282828"/>
<path d="M243.233 84.8166L229.811 88.2742C229.811 88.2742 230.424 84.5186 235.913 83.1466C241.403 81.7824 243.233 84.8087 243.233 84.8087V84.8166Z" fill="#282828"/>
<path d="M240.563 107.475C240.563 107.475 242.542 108.988 247.749 108.988C252.484 108.988 255.437 107.475 255.437 107.475" stroke="#282828" stroke-width="0.895437" stroke-linecap="round" stroke-linejoin="round"/>
<path d="M237.429 103.782C242.113 103.782 245.911 99.9913 245.911 95.3148C245.911 90.6383 242.113 86.8472 237.429 86.8472C232.745 86.8472 228.947 90.6383 228.947 95.3148C228.947 99.9913 232.745 103.782 237.429 103.782Z" stroke="white" stroke-width="1.24722" stroke-miterlimit="10"/>
<path d="M258.265 103.782C262.949 103.782 266.746 99.9913 266.746 95.3148C266.746 90.6383 262.949 86.8472 258.265 86.8472C253.58 86.8472 249.783 90.6383 249.783 95.3148C249.783 99.9913 253.58 103.782 258.265 103.782Z" stroke="white" stroke-width="1.24722" stroke-miterlimit="10"/>
<path d="M245.911 95.3148C245.911 95.3148 247.921 93.441 249.783 95.3148" stroke="white" stroke-width="1.24722" stroke-miterlimit="10"/>
<path d="M228.947 95.3148L226.104 95.2442" stroke="white" stroke-width="1.24722" stroke-miterlimit="10"/>
<path d="M266.746 95.3148L269.919 95.2678" stroke="white" stroke-width="1.24722" stroke-miterlimit="10"/>
<path d="M232.992 68.7203C232.992 68.7203 237.068 80.2769 255.445 79.9163C267.932 79.6732 270.917 88.6975 270.917 88.6975C270.917 88.6975 268.741 68.5243 268.168 68.7203C267.595 68.9085 249.162 63.8123 249.162 63.8123L232.984 68.7203H232.992Z" fill="#282828"/>
</svg>
