<svg width="45" height="32" viewBox="0 0 45 32" fill="none" xmlns="http://www.w3.org/2000/svg">
<path d="M4.23812 11.0915L0.38916 11.005C0.38916 12.0429 0.627017 12.9295 1.12435 13.7079C1.62169 14.4864 2.31364 15.0918 3.22182 15.5027C4.13 15.9351 5.16793 16.1297 6.33559 16.1297C7.58974 16.1297 8.69254 15.9351 9.68721 15.5459C10.6819 15.1567 11.4603 14.5945 12.0225 13.816C12.5847 13.0376 12.8658 12.1078 12.8658 11.005C12.8658 9.92382 12.4983 9.08051 11.8063 8.45343C11.0927 7.82635 9.96832 7.30739 8.43306 6.87493C7.37351 6.59382 6.65994 6.33434 6.29234 6.07486C5.92475 5.837 5.75176 5.51265 5.75176 5.12343C5.75176 4.71259 5.90312 4.38824 6.2491 4.15038C6.59507 3.93415 7.04916 3.80441 7.61137 3.80441C8.13033 3.80441 8.58442 3.97739 8.97364 4.32337C9.34124 4.66934 9.55747 5.08019 9.62234 5.57752H13.4929C13.4929 4.5396 13.2334 3.67467 12.7361 2.93947C12.2388 2.20428 11.5684 1.66369 10.7035 1.2961C9.83858 0.928497 8.88715 0.733887 7.8276 0.733887C5.94637 0.733887 4.45436 1.14473 3.32994 1.9448C2.20552 2.76648 1.64332 3.95577 1.64332 5.51265C1.64332 6.68032 1.96767 7.61012 2.65961 8.28045C3.32994 8.97239 4.36786 9.49135 5.75176 9.85895C6.83293 10.1617 7.61137 10.4644 8.06546 10.7239C8.49793 10.9834 8.73578 11.3077 8.73578 11.6969C8.73578 12.151 8.54117 12.497 8.15195 12.7349C7.76273 12.9727 7.26539 13.0808 6.61669 13.0808C5.96799 13.0808 5.44903 12.9295 5.01656 12.5835C4.5841 12.2375 4.32461 11.7402 4.23812 11.0915Z" fill="#F2F2F2"/>
<path d="M15.6548 7.93447L14.8331 12.5186C14.7682 12.9295 14.7466 13.2106 14.7466 13.3619C14.7466 14.2053 15.0277 14.854 15.6115 15.308C16.1737 15.7838 16.9522 16 17.9036 16H20.3687L20.9092 12.9078H19.4172C18.8983 12.9078 18.6388 12.7132 18.6388 12.324L18.682 11.8915L19.3956 7.93447H21.7958L22.3364 4.84233H19.9362L20.4984 1.70694H16.7575L16.1953 4.84233H14.4438L13.9033 7.93447H15.6548Z" fill="#F2F2F2"/>
<path d="M31.0501 4.84233H30.4014C29.623 4.84233 28.9743 4.97207 28.4553 5.20993C27.9363 5.46941 27.4606 5.837 27.0714 6.35597L27.0498 4.84233H23.6333L21.6656 16H25.4064L26.3362 10.7671C26.4659 9.94545 26.7903 9.31837 27.2876 8.84265C27.7633 8.38856 28.3904 8.15071 29.1689 8.15071H30.4663L31.0501 4.84233Z" fill="#F2F2F2"/>
<path d="M9.68721 20.3397C8.88715 19.9288 7.95734 19.7126 6.87617 19.7126C5.57877 19.7126 4.45436 19.9721 3.50293 20.491C2.5515 21.01 1.79468 21.7452 1.27572 22.6966C0.756758 23.648 0.497277 24.7508 0.497277 26.005C0.497277 26.978 0.691887 27.843 1.12435 28.6214C1.55682 29.3999 2.1839 30.0269 3.02721 30.4594C3.8489 30.9135 4.8652 31.1297 6.03286 31.1297C7.00591 31.1297 7.89247 30.9784 8.71416 30.6324C9.53585 30.2864 10.2062 29.8323 10.7468 29.2269C11.2657 28.6214 11.6117 27.9511 11.7847 27.1943H8.10871C7.9141 27.6267 7.65461 27.9295 7.35189 28.1241C7.04916 28.3403 6.61669 28.4268 6.07611 28.4268C5.47065 28.4268 4.99494 28.2538 4.64897 27.8646C4.30299 27.497 4.13 27.0645 4.17325 26.5672L4.19487 26.2861H11.9793C12.0225 26.0915 12.0658 25.8104 12.109 25.4644C12.1523 25.1184 12.1739 24.8157 12.1739 24.5346C12.1739 23.6048 11.9577 22.7831 11.5252 22.0479C11.0927 21.3127 10.4873 20.7505 9.68721 20.3397ZM8.51955 24.0156H4.62734C4.77871 23.5399 5.03819 23.1291 5.42741 22.8264C5.795 22.5236 6.2491 22.3723 6.78968 22.3723C7.30864 22.3723 7.71949 22.502 8.04384 22.7399C8.34656 22.9777 8.51955 23.3453 8.51955 23.8643V24.0156Z" fill="#F2F2F2"/>
<path d="M22.3149 20.3397C21.5149 19.9288 20.5851 19.7126 19.5039 19.7126C18.2065 19.7126 17.0821 19.9721 16.1306 20.491C15.1792 21.01 14.4224 21.7452 13.9034 22.6966C13.3845 23.648 13.125 24.7508 13.125 26.005C13.125 26.978 13.3196 27.843 13.7521 28.6214C14.1845 29.3999 14.8116 30.0269 15.6549 30.4594C16.4766 30.9135 17.4929 31.1297 18.6606 31.1297C19.6336 31.1297 20.5202 30.9784 21.3419 30.6324C22.1636 30.2864 22.8339 29.8323 23.3745 29.2269C23.8934 28.6214 24.2394 27.9511 24.4124 27.1943H20.7364C20.5418 27.6267 20.2823 27.9295 19.9796 28.1241C19.6769 28.3403 19.2444 28.4268 18.7038 28.4268C18.0984 28.4268 17.6227 28.2538 17.2767 27.8646C16.9307 27.497 16.7577 27.0645 16.801 26.5672L16.8226 26.2861H24.607C24.6503 26.0915 24.6935 25.8104 24.7367 25.4644C24.78 25.1184 24.8016 24.8157 24.8016 24.5346C24.8016 23.6048 24.5854 22.7831 24.1529 22.0479C23.7204 21.3127 23.115 20.7505 22.3149 20.3397ZM21.1473 24.0156H17.2551C17.4064 23.5399 17.6659 23.1291 18.0551 22.8264C18.4227 22.5236 18.8768 22.3723 19.4174 22.3723C19.9364 22.3723 20.3472 22.502 20.6715 22.7399C20.9743 22.9777 21.1473 23.3453 21.1473 23.8643V24.0156Z" fill="#F2F2F2"/>
<path d="M43.246 20.5559C42.5108 19.9937 41.581 19.7126 40.4998 19.7126C39.7647 19.7126 39.0943 19.864 38.4673 20.1667C37.8402 20.4694 37.2996 20.8802 36.8671 21.4208C36.5428 20.837 36.0887 20.4045 35.5048 20.1234C34.921 19.864 34.2939 19.7126 33.6236 19.7126C32.9317 19.7126 32.3478 19.8207 31.8721 20.0369C31.3964 20.2532 30.9423 20.5775 30.5315 21.01L30.4882 19.8423H27.2231L25.2554 31H28.9962L29.9909 25.3563C30.1206 24.4914 30.4017 23.8427 30.791 23.3886C31.1802 22.9345 31.6559 22.6966 32.2181 22.6966C32.6289 22.6966 32.9533 22.8264 33.1695 23.0426C33.3858 23.2588 33.5155 23.5399 33.5155 23.8859C33.5155 24.1886 33.4506 24.6211 33.3641 25.1401L32.3262 31H36.0671L37.0617 25.3563C37.1915 24.4914 37.4726 23.821 37.8618 23.3669C38.251 22.9345 38.7267 22.6966 39.2889 22.6966C39.6998 22.6966 40.0241 22.8264 40.2404 23.0426C40.4566 23.2588 40.5863 23.5399 40.5863 23.8859C40.5863 24.1886 40.5215 24.6211 40.435 25.1401L39.3971 31H43.1379L44.1758 25.1617C44.2839 24.5346 44.3488 23.9075 44.3488 23.3021C44.3488 22.0479 43.9812 21.1181 43.246 20.5559Z" fill="#F2F2F2"/>
<circle cx="38" cy="11" r="4" fill="#56DFED"/>
</svg>
